<svg xmlns="http://www.w3.org/2000/svg" width="1280" height="720" viewBox="0 0 1280 720" fill="none">
  <rect width="1280" height="720" rx="32" fill="#0D0D0F"/>
  <rect x="32" y="32" width="1216" height="656" rx="24" fill="#141416" stroke="#2A2A2E"/>
  <rect x="64" y="64" width="1152" height="96" rx="20" fill="#1C1C1F" stroke="#2A2A2E"/>
  <text x="96" y="112" fill="#F5F5F5" font-family="Arial, sans-serif" font-size="32" font-weight="700">Side-by-side render comparison</text>
  <text x="96" y="142" fill="#A3A3A3" font-family="Arial, sans-serif" font-size="16">Left: unoptimized render churn. Right: toggled optimization state.</text>
  <rect x="64" y="184" width="536" height="488" rx="20" fill="#1C1C1F" stroke="#FF444420"/>
  <rect x="680" y="184" width="536" height="488" rx="20" fill="#1C1C1F" stroke="#00C85320"/>
  <text x="96" y="228" fill="#FF8080" font-family="Arial, sans-serif" font-size="18" font-weight="700">Unoptimized</text>
  <text x="712" y="228" fill="#8DFFB0" font-family="Arial, sans-serif" font-size="18" font-weight="700">Optimized</text>
  <rect x="96" y="260" width="472" height="120" rx="16" fill="#141416" stroke="#2A2A2E"/>
  <rect x="712" y="260" width="472" height="120" rx="16" fill="#141416" stroke="#2A2A2E"/>
  <rect x="96" y="400" width="472" height="240" rx="16" fill="#141416" stroke="#2A2A2E"/>
  <rect x="712" y="400" width="472" height="240" rx="16" fill="#141416" stroke="#2A2A2E"/>
  <text x="124" y="304" fill="#F5F5F5" font-family="Arial, sans-serif" font-size="20" font-weight="700">Render count badge</text>
  <text x="740" y="304" fill="#F5F5F5" font-family="Arial, sans-serif" font-size="20" font-weight="700">Render count badge</text>
  <text x="124" y="444" fill="#A3A3A3" font-family="Arial, sans-serif" font-size="18">Memo / useMemo / useCallback demo card</text>
  <text x="740" y="444" fill="#A3A3A3" font-family="Arial, sans-serif" font-size="18">Memo / useMemo / useCallback demo card</text>
</svg>
